# xmcd
#
# Track frame offsets:
#	150
#	20547
#	39592
#	59770
#
# Disc length: 1046 seconds
#
# Revision: 0
# Processed by: cddbd v1.5.2PL0 Copyright (c) Steve Scherf et al.
# Submitted via: audiograbber 1.83.01
#
DISCID=32041404
DTITLE=Don Frankie - Morning Light - Crazy [CDS)
DYEAR=1998
DGENRE=Dance
TTITLE0=Morning Light
TTITLE1=Crazy
TTITLE2=Morning Light (Instr.)
TTITLE3=Crazy (Instr.)
EXTD=TR.
EXTT0=
EXTT1=
EXTT2=
EXTT3=
PLAYORDER=
